<?xml version="1.0" ?><svg id="Bold" viewBox="0 0 24 24" xmlns="http://www.w3.org/2000/svg"><title/><path d="M11.53,20.31a3.18,3.18,0,0,1-1,.55,3.59,3.59,0,0,1-4.71-2.4,5.49,5.49,0,0,1-.13-.74c0-.19,0-.15-.17-.19a3.16,3.16,0,0,1-2.42-2,3.25,3.25,0,0,1,.78-3.59.14.14,0,0,0,0-.2A3.1,3.1,0,0,1,5.13,7.43a2.78,2.78,0,0,1,.95-.32A.22.22,0,0,0,6.27,7,4.62,4.62,0,0,1,13,4.78a.21.21,0,0,0,.2,0,4.11,4.11,0,0,1,4.53,1.31,4,4,0,0,1,.88,2.77A.13.13,0,0,0,18.7,9,2.25,2.25,0,0,1,20,12.13a2.21,2.21,0,0,1-.55.74.1.1,0,0,0,0,.15,3.91,3.91,0,0,1-3.06,5.92H16c-.07,0-.1,0-.12.09a2.63,2.63,0,0,1-.63,1.12,2.6,2.6,0,0,1-1.59.81,2.68,2.68,0,0,1-2.09-.61l-.06,0Zm4-3.58a1.66,1.66,0,0,0,.75-.14.56.56,0,0,0-.07-1L16,15.51l-.7-.12c-.44-.09-.62-.3-.58-.75a3.24,3.24,0,0,1,.17-.82c.2-.56.44-1.12.67-1.67s.49-1.18.72-1.78a1.63,1.63,0,0,0,.1-.95,1.19,1.19,0,0,0-.74-1,1.84,1.84,0,0,0-1.6.09.32.32,0,0,1-.45-.05c-.12-.11-.24-.23-.37-.33A.94.94,0,0,0,12.89,8a1.13,1.13,0,0,0-1.06.23l-.29.26a2.93,2.93,0,0,1-.33.24.44.44,0,0,1-.44,0l-.85-.4a1.27,1.27,0,0,0-.77-.12,1.85,1.85,0,0,0-1.42,1,7.56,7.56,0,0,0-.46,1.11q-.66,2-1.28,4.07a1.37,1.37,0,0,0,.35,1.44,1.59,1.59,0,0,0,1.26.44,1.15,1.15,0,0,0,1-.66,2.26,2.26,0,0,0,.12-.25L10,12.08c.15-.39.31-.77.47-1.15a.52.52,0,0,1,.5-.29.46.46,0,0,1,.37.38.76.76,0,0,1,0,.44l-.69,1.77c-.15.4-.32.79-.46,1.19a.61.61,0,0,0,.3.81A1,1,0,0,0,11.58,15a2.54,2.54,0,0,0,.27-.42l1.68-3.31c.09-.18.18-.37.29-.54a1.61,1.61,0,0,1,.3-.36.34.34,0,0,1,.4,0,.29.29,0,0,1,.12.33,1.06,1.06,0,0,1-.08.3c-.15.33-.3.66-.45,1-.33.72-.69,1.42-1,2.15a1.86,1.86,0,0,0,1.13,2.44A4.31,4.31,0,0,0,15.48,16.73Z"/><circle cx="17.32" cy="20.6" r="0.96" transform="translate(-0.03 0.02) rotate(-0.08)"/><circle cx="1.83" cy="11.54" r="0.91" transform="translate(-9.73 13.32) rotate(-89.74)"/><path d="M13.33,3.82a.91.91,0,1,1,.9-.91A.9.9,0,0,1,13.33,3.82Z"/><circle cx="20.15" cy="7.8" r="0.77" transform="translate(-0.01 0.03) rotate(-0.09)"/><path d="M4.66,5.52a.69.69,0,0,1,.7-.69.7.7,0,0,1,.69.69.71.71,0,0,1-.7.7A.7.7,0,0,1,4.66,5.52Z"/><circle cx="11.45" cy="21.99" r="0.59"/><path d="M22.11,13.14a.57.57,0,1,1-.57-.57A.56.56,0,0,1,22.11,13.14Z"/><ellipse cx="7.36" cy="1.9" rx="0.48" ry="0.48" transform="translate(-0.01 0.04) rotate(-0.31)"/><path d="M23.09,10.31a.42.42,0,0,1-.43.42.42.42,0,0,1,0-.85A.42.42,0,0,1,23.09,10.31Z"/><path d="M4.25,18.63a.42.42,0,0,1,.84,0,.42.42,0,1,1-.84,0Z"/></svg>